<?xml version="1.0" encoding="UTF-8" standalone="no"?>
<!-- Created with Inkscape (http://www.inkscape.org/) -->

<svg
   width="23.070312"
   height="29.023438"
   viewBox="0 0 23.070312 29.023438"
   version="1.1"
   id="svg5"
   inkscape:version="1.2 (1:1.2.1+202207142221+cd75a1ee6d)"
   sodipodi:docname="assignment_icon_1.svg"
   xmlns:inkscape="http://www.inkscape.org/namespaces/inkscape"
   xmlns:sodipodi="http://sodipodi.sourceforge.net/DTD/sodipodi-0.dtd"
   xmlns="http://www.w3.org/2000/svg"
   xmlns:svg="http://www.w3.org/2000/svg">
  <sodipodi:namedview
     id="namedview7"
     pagecolor="#ffffff"
     bordercolor="#000000"
     borderopacity="0.25"
     inkscape:showpageshadow="2"
     inkscape:pageopacity="0.0"
     inkscape:pagecheckerboard="0"
     inkscape:deskcolor="#d1d1d1"
     inkscape:document-units="px"
     showgrid="false"
     inkscape:zoom="14.75"
     inkscape:cx="8.8135593"
     inkscape:cy="21.186441"
     inkscape:window-width="1280"
     inkscape:window-height="960"
     inkscape:window-x="0"
     inkscape:window-y="27"
     inkscape:window-maximized="1"
     inkscape:current-layer="layer1" />
  <defs
     id="defs2" />
  <g
     inkscape:label="Layer 1"
     inkscape:groupmode="layer"
     id="layer1"
     transform="translate(-4.4648438,-0.43554688)">
    <path
       id="path2708"
       style="fill:#ffffff;fill-opacity:0.933333;stroke-width:0.175;stroke-linecap:round;stroke-miterlimit:3;stroke-dasharray:0, 1.925;paint-order:markers fill stroke"
       d="M 18.625303,3.6180615 A 2.5045755,2.5045755 0 0 1 16.120728,6.122637 2.5045755,2.5045755 0 0 1 13.616152,3.6180615 2.5045755,2.5045755 0 0 1 16.120728,1.1134861 2.5045755,2.5045755 0 0 1 18.625303,3.6180615 Z" />
    <g
       id="g2625">
      <g
         id="g2558">
        <path
           id="rect576"
           style="fill:#6200ee;fill-opacity:0.933333;stroke:#ffffff;stroke-width:0.175;stroke-linecap:round;stroke-miterlimit:3;stroke-dasharray:0, 1.925;stroke-dashoffset:0;stroke-opacity:1"
           d="m 6.5644531,5.2910156 c -0.030907,0 -0.060737,0.00352 -0.089844,0.011719 -0.029107,0.0082 -0.057268,0.021519 -0.083984,0.037109 -0.026716,0.015591 -0.052435,0.034478 -0.076172,0.056641 -0.023737,0.022162 -0.046238,0.0463 -0.066406,0.074219 -0.040336,0.055837 -0.073178,0.1232993 -0.095703,0.1972657 -0.022525,0.073966 -0.035156,0.1546643 -0.035156,0.2402343 V 27.822266 c 0,0.08557 0.012631,0.166268 0.035156,0.240234 0.022525,0.07397 0.055367,0.141429 0.095703,0.197266 0.020168,0.02792 0.042669,0.05206 0.066406,0.07422 0.023737,0.02216 0.049456,0.04105 0.076172,0.05664 0.026716,0.01559 0.054878,0.02891 0.083984,0.03711 0.029107,0.0082 0.058936,0.01172 0.089844,0.01172 H 25.435547 c 0.03091,0 0.06074,-0.0035 0.08984,-0.01172 0.02911,-0.0082 0.05727,-0.02152 0.08398,-0.03711 0.02672,-0.01559 0.05243,-0.03448 0.07617,-0.05664 0.02374,-0.02216 0.04624,-0.0463 0.06641,-0.07422 0.04034,-0.05584 0.07318,-0.1233 0.0957,-0.197266 0.02252,-0.07397 0.03516,-0.154664 0.03516,-0.240234 V 5.9082031 c 0,-0.08557 -0.01263,-0.166268 -0.03516,-0.2402343 -0.02253,-0.073966 -0.05537,-0.1414289 -0.0957,-0.1972657 -0.02017,-0.027918 -0.04267,-0.052056 -0.06641,-0.074219 -0.02374,-0.022162 -0.04946,-0.04105 -0.07617,-0.056641 -0.02672,-0.015591 -0.05488,-0.028906 -0.08398,-0.037109 -0.02911,-0.0082 -0.05894,-0.011719 -0.08984,-0.011719 z" />
        <path
           id="path2047"
           style="fill:#6200ee;fill-opacity:0.933333;stroke-width:0.475;stroke-linecap:round;stroke-miterlimit:3"
           d="m 16.583984,0.43554688 c -4.397791,0 -9.1850419,2.23280892 -11.6738278,1.02343752 C 4.6877634,1.3509173 4.4648438,1.733892 4.4648438,2.0761719 V 28.841797 c 0,0.342281 0.1980533,0.617187 0.4453124,0.617187 H 27.089844 c 0.247259,0 0.445312,-0.274906 0.445312,-0.617187 V 2.0761719 c 0,-0.3422799 -0.225213,-0.7298518 -0.445312,-0.6171875 -2.899442,1.4841679 -6.96791,-1.02343752 -10.50586,-1.02343752 z M 16,1.609375 A 1.6536803,1.6536803 0 0 1 17.654297,3.2617188 1.6536803,1.6536803 0 0 1 16,4.9160156 1.6536803,1.6536803 0 0 1 14.345703,3.2617188 1.6536803,1.6536803 0 0 1 16,1.609375 Z M 6.5644531,5.2910156 H 25.435547 c 0.03091,0 0.06074,0.00352 0.08984,0.011719 0.02911,0.0082 0.05727,0.021519 0.08398,0.037109 0.02672,0.015591 0.05243,0.034478 0.07617,0.056641 0.02374,0.022162 0.04624,0.0463 0.06641,0.074219 0.04034,0.055837 0.07318,0.1232993 0.0957,0.1972657 0.02252,0.073966 0.03516,0.1546643 0.03516,0.2402343 V 27.822266 c 0,0.08557 -0.01263,0.166268 -0.03516,0.240234 -0.02253,0.07397 -0.05537,0.141429 -0.0957,0.197266 -0.02017,0.02792 -0.04267,0.05206 -0.06641,0.07422 -0.02374,0.02216 -0.04946,0.04105 -0.07617,0.05664 -0.02672,0.01559 -0.05488,0.02891 -0.08398,0.03711 -0.02911,0.0082 -0.05894,0.01172 -0.08984,0.01172 H 6.5644531 c -0.030907,0 -0.060737,-0.0035 -0.089844,-0.01172 -0.029107,-0.0082 -0.057268,-0.02152 -0.083984,-0.03711 -0.026716,-0.01559 -0.052435,-0.03448 -0.076172,-0.05664 -0.023737,-0.02216 -0.046238,-0.0463 -0.066406,-0.07422 -0.040336,-0.05584 -0.073178,-0.1233 -0.095703,-0.197266 -0.022525,-0.07397 -0.035156,-0.154664 -0.035156,-0.240234 V 5.9082031 c 0,-0.08557 0.012631,-0.166268 0.035156,-0.2402343 0.022525,-0.073966 0.055367,-0.1414289 0.095703,-0.1972657 0.020168,-0.027918 0.042669,-0.052056 0.066406,-0.074219 0.023737,-0.022162 0.049456,-0.04105 0.076172,-0.056641 0.026716,-0.015591 0.054878,-0.028906 0.083984,-0.037109 0.029107,-0.0082 0.058936,-0.011719 0.089844,-0.011719 z" />
      </g>
      <g
         id="g2597"
         style="fill:#ffffff;fill-opacity:0.933333">
        <path
           id="rect2554"
           style="stroke-width:0.175;stroke-linecap:round;stroke-miterlimit:3;stroke-dasharray:0, 1.925"
           d="M 7.3696274,6.737215 H 24.630373 c 0.247259,0 0.446317,0.2488767 0.446317,0.5580195 0,0.3091428 -0.199058,0.5580195 -0.446317,0.5580195 H 7.3696274 c -0.2472597,0 -0.4463171,-0.2488767 -0.4463171,-0.5580195 0,-0.3091428 0.1990574,-0.5580195 0.4463171,-0.5580195 z" />
        <path
           id="rect2560"
           style="stroke-width:0.175;stroke-linecap:round;stroke-miterlimit:3;stroke-dasharray:0, 1.925"
           d="M 7.3696274,8.737215 H 24.630373 c 0.247259,0 0.446317,0.2488767 0.446317,0.5580195 0,0.3091428 -0.199058,0.5580195 -0.446317,0.5580195 H 7.3696274 c -0.2472597,0 -0.4463171,-0.2488767 -0.4463171,-0.5580195 0,-0.3091428 0.1990574,-0.5580195 0.4463171,-0.5580195 z" />
        <path
           id="rect2562"
           style="stroke-width:0.175;stroke-linecap:round;stroke-miterlimit:3;stroke-dasharray:0, 1.925"
           transform="scale(1,-1)"
           d="M 7.3696274,-11.853254 H 24.630373 c 0.247259,0 0.446317,0.248876 0.446317,0.558019 0,0.309143 -0.199058,0.55802 -0.446317,0.55802 H 7.3696274 c -0.2472597,0 -0.4463171,-0.248877 -0.4463171,-0.55802 0,-0.309143 0.1990574,-0.558019 0.4463171,-0.558019 z" />
        <path
           id="rect2564"
           style="stroke-width:0.175;stroke-linecap:round;stroke-miterlimit:3;stroke-dasharray:0, 1.925"
           d="M 7.3696274,12.737215 H 24.630373 c 0.247259,0 0.446317,0.248877 0.446317,0.55802 0,0.309142 -0.199058,0.558019 -0.446317,0.558019 H 7.3696274 c -0.2472597,0 -0.4463171,-0.248877 -0.4463171,-0.558019 0,-0.309143 0.1990574,-0.55802 0.4463171,-0.55802 z" />
        <path
           id="rect2566"
           style="stroke-width:0.175;stroke-linecap:round;stroke-miterlimit:3;stroke-dasharray:0, 1.925"
           d="M 7.3696274,14.737215 H 24.630373 c 0.247259,0 0.446317,0.248877 0.446317,0.55802 0,0.309142 -0.199058,0.558019 -0.446317,0.558019 H 7.3696274 c -0.2472597,0 -0.4463171,-0.248877 -0.4463171,-0.558019 0,-0.309143 0.1990574,-0.55802 0.4463171,-0.55802 z" />
        <path
           id="rect2568"
           style="stroke-width:0.175;stroke-linecap:round;stroke-miterlimit:3;stroke-dasharray:0, 1.925"
           d="M 7.3696274,16.737215 H 24.630373 c 0.247259,0 0.446317,0.248877 0.446317,0.55802 0,0.309142 -0.199058,0.558019 -0.446317,0.558019 H 7.3696274 c -0.2472597,0 -0.4463171,-0.248877 -0.4463171,-0.558019 0,-0.309143 0.1990574,-0.55802 0.4463171,-0.55802 z" />
        <path
           id="rect2570"
           style="stroke-width:0.175;stroke-linecap:round;stroke-miterlimit:3;stroke-dasharray:0, 1.925"
           d="M 7.3696274,18.737215 H 24.630373 c 0.247259,0 0.446317,0.248877 0.446317,0.55802 0,0.309142 -0.199058,0.558019 -0.446317,0.558019 H 7.3696274 c -0.2472597,0 -0.4463171,-0.248877 -0.4463171,-0.558019 0,-0.309143 0.1990574,-0.55802 0.4463171,-0.55802 z" />
        <path
           id="rect2572"
           style="stroke-width:0.175;stroke-linecap:round;stroke-miterlimit:3;stroke-dasharray:0, 1.925"
           d="M 7.3696274,20.737215 H 24.630373 c 0.247259,0 0.446317,0.248877 0.446317,0.55802 0,0.309142 -0.199058,0.558019 -0.446317,0.558019 H 7.3696274 c -0.2472597,0 -0.4463171,-0.248877 -0.4463171,-0.558019 0,-0.309143 0.1990574,-0.55802 0.4463171,-0.55802 z" />
        <path
           id="rect2574"
           style="stroke-width:0.175;stroke-linecap:round;stroke-miterlimit:3;stroke-dasharray:0, 1.925"
           d="M 7.3696274,22.737215 H 24.630373 c 0.247259,0 0.446317,0.248877 0.446317,0.55802 0,0.309142 -0.199058,0.558019 -0.446317,0.558019 H 7.3696274 c -0.2472597,0 -0.4463171,-0.248877 -0.4463171,-0.558019 0,-0.309143 0.1990574,-0.55802 0.4463171,-0.55802 z" />
        <path
           id="rect2576"
           style="stroke-width:0.175;stroke-linecap:round;stroke-miterlimit:3;stroke-dasharray:0, 1.925"
           d="M 7.3696274,24.737215 H 24.630373 c 0.247259,0 0.446317,0.248877 0.446317,0.55802 0,0.309142 -0.199058,0.558019 -0.446317,0.558019 H 7.3696274 c -0.2472597,0 -0.4463171,-0.248877 -0.4463171,-0.558019 0,-0.309143 0.1990574,-0.55802 0.4463171,-0.55802 z" />
        <path
           id="rect2578"
           style="stroke-width:0.175;stroke-linecap:round;stroke-miterlimit:3;stroke-dasharray:0, 1.925"
           d="M 7.3696274,26.737215 H 24.630373 c 0.247259,0 0.446317,0.248877 0.446317,0.55802 0,0.309142 -0.199058,0.558019 -0.446317,0.558019 H 7.3696274 c -0.2472597,0 -0.4463171,-0.248877 -0.4463171,-0.558019 0,-0.309143 0.1990574,-0.55802 0.4463171,-0.55802 z" />
      </g>
    </g>
  </g>
</svg>
