<?xml version="1.0" encoding="UTF-8" standalone="no"?>
<!-- Created with Inkscape (http://www.inkscape.org/) -->

<svg
   width="24.616508"
   height="25.929579"
   viewBox="0 0 24.616508 25.929579"
   version="1.1"
   id="svg65"
   inkscape:version="1.2 (1:1.2.1+202207142221+cd75a1ee6d)"
   sodipodi:docname="assignment_icon.svg"
   xmlns:inkscape="http://www.inkscape.org/namespaces/inkscape"
   xmlns:sodipodi="http://sodipodi.sourceforge.net/DTD/sodipodi-0.dtd"
   xmlns="http://www.w3.org/2000/svg"
   xmlns:svg="http://www.w3.org/2000/svg"
   xmlns:rdf="http://www.w3.org/1999/02/22-rdf-syntax-ns#"
   xmlns:cc="http://creativecommons.org/ns#"
   xmlns:dc="http://purl.org/dc/elements/1.1/">
  <title
     id="title10276">Simple Gym Member Manage Icon</title>
  <sodipodi:namedview
     id="namedview67"
     pagecolor="#ffffff"
     bordercolor="#000000"
     borderopacity="0.25"
     inkscape:showpageshadow="2"
     inkscape:pageopacity="0.0"
     inkscape:pagecheckerboard="false"
     inkscape:deskcolor="#d1d1d1"
     inkscape:document-units="px"
     showgrid="false"
     showguides="true"
     inkscape:zoom="20.85965"
     inkscape:cx="9.5878886"
     inkscape:cy="15.268713"
     inkscape:window-width="1280"
     inkscape:window-height="960"
     inkscape:window-x="0"
     inkscape:window-y="27"
     inkscape:window-maximized="1"
     inkscape:current-layer="layer1">
    <sodipodi:guide
       position="-0.167589,15.321189"
       orientation="1,0"
       id="guide273"
       inkscape:locked="false" />
    <sodipodi:guide
       position="24.808861,14.31446"
       orientation="1,0"
       id="guide275"
       inkscape:locked="false" />
    <sodipodi:guide
       position="26.101113,25.930842"
       orientation="0,-1"
       id="guide277"
       inkscape:locked="false" />
    <sodipodi:guide
       position="6.112478,-0.21119082"
       orientation="0,-1"
       id="guide279"
       inkscape:locked="false" />
    <sodipodi:guide
       position="3.4278692,14.841794"
       orientation="1,0"
       id="guide4423"
       inkscape:locked="false" />
  </sodipodi:namedview>
  <defs
     id="defs62">
    <linearGradient
       id="linearGradient6980"
       inkscape:swatch="solid">
      <stop
         style="stop-color:#ffffff;stop-opacity:1;"
         offset="0"
         id="stop6978" />
    </linearGradient>
  </defs>
  <g
     inkscape:label="Layer 1"
     inkscape:groupmode="layer"
     id="layer1"
     transform="translate(-2.66044,-1.3285311)">
    <path
       id="rect886"
       style="fill:#6200ee;fill-opacity:0.93333334;stroke-width:0.475241;stroke-linecap:round;stroke-miterlimit:3;fill-rule:evenodd"
       d="M 5.3823795,1.3285311 H 24.555009 c 1.507954,0 2.721939,0.6764066 2.721939,1.5166067 V 25.741503 c 0,0.8402 -1.213985,1.516607 -2.721939,1.516607 H 5.3823795 C 3.874425,27.25811 2.66044,26.581703 2.66044,25.741503 V 2.8451378 c 0,-0.8402001 1.213985,-1.5166067 2.7219395,-1.5166067 z" />
    <path
       id="rect4945"
       style="fill:#ffffff;stroke-width:0.47;stroke-linecap:round;stroke-miterlimit:3"
       transform="scale(1,-1)"
       d="M 6.5132379,-6.1363072 H 23.42415 c 0.24726,0 0.446318,0.2755543 0.446318,0.6178347 v 0.3481872 c 0,0.3422805 -0.199058,0.6178348 -0.446318,0.6178348 H 6.5132379 c -0.2472597,0 -0.4463171,-0.2755543 -0.4463171,-0.6178348 v -0.3481872 c 0,-0.3422804 0.1990574,-0.6178347 0.4463171,-0.6178347 z" />
    <path
       id="rect4947"
       style="fill:#ffffff;fill-opacity:0.933333;stroke-width:0.47;stroke-linecap:round;stroke-miterlimit:3"
       transform="scale(1,-1)"
       d="M 6.5132379,-10.136307 H 23.42415 c 0.24726,0 0.446318,0.2755545 0.446318,0.617835 v 0.3481872 c 0,0.3422804 -0.199058,0.6178347 -0.446318,0.6178347 H 6.5132379 c -0.2472597,0 -0.4463171,-0.2755543 -0.4463171,-0.6178347 V -9.518472 c 0,-0.3422805 0.1990574,-0.617835 0.4463171,-0.617835 z" />
    <path
       id="rect4949"
       style="fill:#ffffff;fill-opacity:0.933333;stroke-width:0.47;stroke-linecap:round;stroke-miterlimit:3"
       transform="scale(1,-1)"
       d="M 6.5132379,-14.136307 H 23.42415 c 0.24726,0 0.446318,0.275555 0.446318,0.617835 v 0.348187 c 0,0.342281 -0.199058,0.617835 -0.446318,0.617835 H 6.5132379 c -0.2472597,0 -0.4463171,-0.275554 -0.4463171,-0.617835 v -0.348187 c 0,-0.34228 0.1990574,-0.617835 0.4463171,-0.617835 z" />
    <path
       id="rect4951"
       style="fill:#ffffff;fill-opacity:0.933333;stroke-width:0.47;stroke-linecap:round;stroke-miterlimit:3"
       transform="scale(1,-1)"
       d="M 6.5132379,-18.136307 H 23.42415 c 0.24726,0 0.446318,0.275555 0.446318,0.617835 v 0.348187 c 0,0.342281 -0.199058,0.617835 -0.446318,0.617835 H 6.5132379 c -0.2472597,0 -0.4463171,-0.275554 -0.4463171,-0.617835 v -0.348187 c 0,-0.34228 0.1990574,-0.617835 0.4463171,-0.617835 z" />
    <path
       id="rect4953"
       style="fill:#ffffff;fill-opacity:0.933333;stroke-width:0.47;stroke-linecap:round;stroke-miterlimit:3"
       transform="scale(1,-1)"
       d="M 6.5132379,-22.136307 H 23.42415 c 0.24726,0 0.446318,0.275555 0.446318,0.617835 v 0.348187 c 0,0.342281 -0.199058,0.617835 -0.446318,0.617835 H 6.5132379 c -0.2472597,0 -0.4463171,-0.275554 -0.4463171,-0.617835 v -0.348187 c 0,-0.34228 0.1990574,-0.617835 0.4463171,-0.617835 z" />
  </g>
  <metadata
     id="metadata10274">
    <rdf:RDF>
      <cc:Work
         rdf:about="">
        <dc:title>Simple Gym Member Manage Icon</dc:title>
        <dc:date>2022-08-06</dc:date>
        <dc:creator>
          <cc:Agent>
            <dc:title>Miroslav Genov</dc:title>
          </cc:Agent>
        </dc:creator>
        <dc:language>Bulgarian</dc:language>
        <dc:publisher>
          <cc:Agent>
            <dc:title>Miroslav Genov</dc:title>
          </cc:Agent>
        </dc:publisher>
        <dc:rights>
          <cc:Agent>
            <dc:title>Miroslav Genov</dc:title>
          </cc:Agent>
        </dc:rights>
        <dc:identifier>Miroslav Genov</dc:identifier>
        <dc:subject>
          <rdf:Bag>
            <rdf:li>assignment icon</rdf:li>
          </rdf:Bag>
        </dc:subject>
        <dc:description>assignment icon for SimpleGymMemberManage app</dc:description>
      </cc:Work>
    </rdf:RDF>
  </metadata>
</svg>
